<svg width="79" height="32" viewBox="0 0 79 32" fill="none" xmlns="http://www.w3.org/2000/svg">
<path d="M1 4.49998L1.85749 3.98549C1.62624 3.60006 1.16624 3.41629 0.733067 3.53627C0.299895 3.65625 0 4.0505 0 4.49998H1ZM6.14251 15.0145C6.42665 15.4881 7.04092 15.6416 7.5145 15.3575C7.98808 15.0733 8.14164 14.4591 7.85749 13.9855L6.14251 15.0145ZM4.85749 3.98549C4.57335 3.51191 3.95908 3.35834 3.4855 3.64249C3.01192 3.92664 2.85836 4.5409 3.14251 5.01448L4.85749 3.98549ZM10 14.5L9.14251 15.0145C9.3168 15.305 9.6263 15.4875 9.96485 15.4994C10.3034 15.5113 10.625 15.351 10.8192 15.0735L10 14.5ZM17 4.49998H18C18 4.06351 17.7169 3.67747 17.3006 3.54625C16.8844 3.41503 16.4311 3.56895 16.1808 3.92652L17 4.49998ZM2 23V4.49998H0V23H2ZM0.142507 5.01448L6.14251 15.0145L7.85749 13.9855L1.85749 3.98549L0.142507 5.01448ZM3.14251 5.01448L9.14251 15.0145L10.8575 13.9855L4.85749 3.98549L3.14251 5.01448ZM10.8192 15.0735L17.8192 5.07345L16.1808 3.92652L9.18077 13.9265L10.8192 15.0735ZM16 4.49998V23H18V4.49998H16Z" fill="black"/>
<path d="M40.226 5.35087C39.8763 5.77831 39.9393 6.40834 40.3668 6.75806C40.7942 7.10779 41.4242 7.04479 41.774 6.61734L40.226 5.35087ZM61 5.98411L61.7305 5.30121L61 5.98411ZM61 26.4841L60.3464 25.7273L60.3079 25.7605L60.273 25.7975L61 26.4841ZM41.6163 25.6966C41.1814 25.3562 40.5529 25.4329 40.2125 25.8678C39.8721 26.3027 39.9488 26.9312 40.3837 27.2716L41.6163 25.6966ZM64.337 13.9841V14.9841C64.651 14.9841 64.9467 14.8367 65.1356 14.5859C65.3246 14.3352 65.3848 14.0102 65.2983 13.7084L64.337 13.9841ZM51 12.9841C50.4477 12.9841 50 13.4318 50 13.9841C50 14.5364 50.4477 14.9841 51 14.9841V12.9841ZM64.337 16.9841L65.3351 17.0451C65.352 16.7698 65.2543 16.4998 65.0653 16.2989C64.8764 16.098 64.6128 15.9841 64.337 15.9841V16.9841ZM51 15.9841C50.4477 15.9841 50 16.4318 50 16.9841C50 17.5364 50.4477 17.9841 51 17.9841V15.9841ZM41.774 6.61734C43.1649 4.91733 45.8476 2.806 49.125 2.18221C52.3203 1.57404 56.2324 2.34841 60.2695 6.667L61.7305 5.30121C57.2689 0.528442 52.6811 -0.530526 48.751 0.217481C44.9031 0.949863 41.8351 3.38421 40.226 5.35087L41.774 6.61734ZM60.273 25.7975C58.9922 27.1536 56.4894 28.8321 53.239 29.3202C50.0294 29.8022 46.0117 29.1365 41.6163 25.6966L40.3837 27.2716C45.1883 31.0317 49.7539 31.866 53.536 31.298C57.2773 30.7362 60.1745 28.8146 61.727 27.1707L60.273 25.7975ZM60.2695 6.667C61.3041 7.77374 61.9179 9.06468 62.3532 10.3912C62.5714 11.056 62.7418 11.7204 62.9008 12.3744C63.0565 13.0146 63.2073 13.6724 63.3758 14.2598L65.2983 13.7084C65.1447 13.1729 65.0095 12.5818 64.8442 11.9019C64.6823 11.236 64.497 10.5096 64.2535 9.76762C63.7656 8.2806 63.0329 6.69447 61.7305 5.30121L60.2695 6.667ZM64.337 12.9841H51V14.9841H64.337V12.9841ZM63.3389 16.9232C63.0816 21.1368 62.076 24.2335 60.3464 25.7273L61.6536 27.2409C64.0393 25.1806 65.0727 21.3431 65.3351 17.0451L63.3389 16.9232ZM64.337 15.9841H51V17.9841H64.337V15.9841Z" fill="#296F4B"/>
<path d="M26.7188 23.25C25.5625 23.25 24.5651 22.9948 23.7266 22.4844C22.8932 21.9688 22.25 21.25 21.7969 20.3281C21.349 19.401 21.125 18.3229 21.125 17.0938C21.125 15.8646 21.349 14.7812 21.7969 13.8437C22.25 12.901 22.8802 12.1667 23.6875 11.6406C24.5 11.1094 25.4479 10.8438 26.5312 10.8438C27.1563 10.8438 27.7734 10.9479 28.3828 11.1562C28.9922 11.3646 29.5469 11.7031 30.0469 12.1719C30.5469 12.6354 30.9453 13.25 31.2422 14.0156C31.5391 14.7812 31.6875 15.724 31.6875 16.8437V17.625H22.4375V16.0312H29.8125C29.8125 15.3542 29.6771 14.75 29.4063 14.2187C29.1406 13.6875 28.7604 13.2682 28.2656 12.9609C27.776 12.6536 27.1979 12.5 26.5312 12.5C25.7969 12.5 25.1615 12.6823 24.625 13.0469C24.0938 13.4062 23.6849 13.875 23.3984 14.4531C23.112 15.0312 22.9688 15.651 22.9688 16.3125V17.375C22.9688 18.2813 23.125 19.0495 23.4375 19.6797C23.7552 20.3047 24.1953 20.7812 24.7578 21.1094C25.3203 21.4323 25.974 21.5938 26.7188 21.5938C27.2031 21.5938 27.6406 21.526 28.0313 21.3906C28.4271 21.25 28.7682 21.0417 29.0547 20.7656C29.3411 20.4844 29.5625 20.1354 29.7188 19.7187L31.5 20.2188C31.3125 20.8229 30.9974 21.3542 30.5547 21.8125C30.112 22.2656 29.5651 22.6198 28.9141 22.875C28.263 23.125 27.5313 23.25 26.7188 23.25Z" fill="black"/>
<path d="M72.5625 23.25C71.4375 23.25 70.4688 22.9844 69.6563 22.4531C68.8438 21.9219 68.2188 21.1901 67.7813 20.2578C67.3438 19.3255 67.125 18.2604 67.125 17.0625C67.125 15.8437 67.349 14.7682 67.7969 13.8359C68.25 12.8984 68.8802 12.1667 69.6875 11.6406C70.5 11.1094 71.4479 10.8438 72.5312 10.8438C73.375 10.8438 74.1354 11 74.8125 11.3125C75.4896 11.625 76.0443 12.0625 76.4766 12.625C76.9089 13.1875 77.1771 13.8437 77.2813 14.5937H75.4375C75.2969 14.0469 74.9844 13.5625 74.5 13.1406C74.0208 12.7135 73.375 12.5 72.5625 12.5C71.8438 12.5 71.2135 12.6875 70.6719 13.0625C70.1354 13.4323 69.7161 13.9557 69.4141 14.6328C69.1172 15.3047 68.9688 16.0937 68.9688 17C68.9688 17.9271 69.1146 18.7344 69.4063 19.4219C69.7031 20.1094 70.1198 20.6432 70.6563 21.0234C71.1979 21.4036 71.8333 21.5938 72.5625 21.5938C73.0417 21.5938 73.4766 21.5104 73.8672 21.3437C74.2578 21.1771 74.5885 20.9375 74.8594 20.625C75.1302 20.3125 75.3229 19.9375 75.4375 19.5H77.2813C77.1771 20.2083 76.9193 20.8464 76.5078 21.4141C76.1016 21.9766 75.5625 22.4245 74.8906 22.7578C74.224 23.0859 73.4479 23.25 72.5625 23.25Z" fill="black"/>
<path d="M34 12.7187V11H43.75V12.7187H39.8125V23H37.9688V12.7187H34Z" fill="black"/>
</svg>
